<svg height="464pt" viewBox="0 0 464 464.00048" width="464pt" xmlns="http://www.w3.org/2000/svg"><path d="m464 432h-64l8-144h56zm0 0" fill="#5d9aa4"/><path d="m464 432h-64l8-16h56zm0 0" fill="#3b869e"/><path d="m160 424c-98.058594-49.03125-159.99609375-149.253906-160-258.886719v-117.113281l160-48 160 48v117.113281c0 109.632813-61.941406 209.855469-160 258.886719zm0 0" fill="#c3c3c3"/><path d="m60.359375 341.753906c26.582031 34.582032 60.644531 62.703125 99.640625 82.246094 98.058594-49.03125 160-149.253906 160-258.886719v-117.113281l-50.3125-15.097656c-39.371094 120.574218-111.917969 227.613281-209.328125 308.851562zm0 0" fill="#cbcbcb"/><path d="m180.152344 331.046875-20.152344 12.953125-20.152344-12.953125c-57.246094-36.800781-91.847656-100.183594-91.847656-168.238281v-74.808594l112-40 112 32v82.808594c0 68.054687-34.601562 131.4375-91.847656 168.238281zm0 0" fill="#dbdbdb"/><path d="m104.167969 301.664062c10.71875 11.140626 22.691406 21 35.679687 29.382813l20.152344 12.953125 20.152344-12.953125c57.246094-36.800781 91.847656-100.183594 91.847656-168.238281v-82.808594l-17.601562-5.039062c-34.171876 84.980468-85.285157 162.113281-150.230469 226.703124zm0 0" fill="#dedede"/><path d="m368 272-16-40v-28c0-15.464844-12.535156-28-28-28s-28 12.535156-28 28v21.839844c0 4.070312.777344 8.101562 2.289062 11.878906l13.710938 34.28125h-104c-13.253906 0-24 10.746094-24 24s10.746094 24 24 24h8c-13.253906 0-24 10.746094-24 24s10.746094 24 24 24h8c-13.253906 0-24 10.746094-24 24s10.746094 24 24 24h6v.199219c-12.851562.996093-22.605469 11.988281-22.066406 24.867187.539062 12.875 11.179687 23.015625 24.066406 22.933594h136l48-32v-144zm0 0" fill="#f6bb92"/><path d="m352 232v-28c0-15.464844-12.535156-28-28-28s-28 12.535156-28 28v21.839844c0 4.070312.777344 8.101562 2.289062 11.878906l13.710938 34.28125h-104c-12.445312.027344-22.792969 9.585938-23.800781 21.992188 0 1.601562.074219 3.289062.113281 5.097656 1.511719 11.933594 11.65625 20.890625 23.6875 20.910156h8c-13.253906 0-24 10.746094-24 24s10.746094 24 24 24h8c-13.253906 0-24 10.746094-24 24s10.746094 24 24 24h6v.199219c-7.429688.515625-14.183594 4.503906-18.222656 10.761719-4.039063 6.257812-4.894532 14.054687-2.304688 21.039062h158.527344l48-32v-128l-48-16zm0 0" fill="#fdc9a6"/><path d="m439 259.878906-14-7.757812c1.445312-2.59375 2.792969-5.242188 4.039062-7.953125l14.527344 6.6875c-1.40625 3.082031-2.941406 6.089843-4.566406 9.023437zm10.695312-24.863281-15.246093-4.800781c1.503906-4.761719 2.707031-9.617188 3.597656-14.535156l15.746094 2.863281c-1.019531 5.574219-2.386719 11.074219-4.097657 16.472656zm6.089844-33.351563-16-.921874c.128906-2.230469.191406-4.484376.191406-6.75 0-2.773438-.09375-5.519532-.28125-8.238282l15.960938-1.082031c.207031 3.082031.316406 6.191406.320312 9.320313.015626 2.570312-.046874 5.128906-.191406 7.671874zm-18.007812-30.785156c-.957032-4.902344-2.21875-9.742187-3.777344-14.488281l15.199219-5.007813c1.777343 5.386719 3.207031 10.882813 4.289062 16.449219zm-9.351563-28.382812c-2.152343-4.507813-4.578125-8.878906-7.265625-13.089844l13.472656-8.605469c3.054688 4.769531 5.804688 9.730469 8.238282 14.847657zm-16.121093-25.183594c-3.195313-3.851562-6.628907-7.496094-10.28125-10.914062l10.9375-11.679688c4.136718 3.875 8.027343 8.003906 11.648437 12.359375zm-21.839844-20.464844c-4.046875-2.925781-8.269532-5.597656-12.648438-8l7.71875-14.015625c4.96875 2.738281 9.757813 5.785157 14.34375 9.121094zm-26.199219-14.398437c-4.652344-1.84375-9.414063-3.390625-14.257813-4.640625l4-15.496094c5.496094 1.410156 10.894532 3.171875 16.167969 5.261719zm0 0" fill="#8dc79d"/><path d="m400 192h-16c.066406-20.90625-12.671875-39.722656-32.113281-47.425781l-2.863281-1.148438 5.953124-14.851562 2.855469 1.144531c25.527344 10.109375 42.261719 34.824219 42.167969 62.28125zm0 0" fill="#f7ba61"/><path d="m3.097656 207.070312 316.902344-95.070312v-32l-319.625 95.886719c.34375 10.4375 1.253906 20.847656 2.722656 31.183593zm0 0" fill="#5d9aa4"/><path d="m272 94.398438-224 67.203124v1.207032c.039062 10.070312.84375 20.128906 2.398438 30.078125l221.601562-66.488281zm0 0" fill="#60a0aa"/><path d="m9.289062 237.214844 310.710938-93.214844v-32l-316.902344 95.070312c1.523438 10.152344 3.589844 20.214844 6.191406 30.144532zm0 0" fill="#e06661"/><path d="m57.265625 222.824219 214.734375-64.425781v-32l-221.601562 66.488281c1.519531 10.140625 3.8125 20.148437 6.867187 29.9375zm0 0" fill="#ea6b65"/></svg>