<svg height="511pt" viewBox="0 -6 511.99956 511" width="511pt" xmlns="http://www.w3.org/2000/svg"><g fill-rule="evenodd"><path d="m227.988281 447.84375c0-41.785156-20.363281-93.226562-73.789062-108.882812-27.199219-7.972657-25.40625-4.027344-43.855469-25.335938l-18.230469-21.0625c-6.34375-7.324219-17.527343-8.128906-24.851562-1.789062-1.402344 1.214843-2.53125 2.578124-3.402344 4.050781l-17.269531-77.386719c-5.335938-23.890625-40.789063-17.082031-36.160156 6.953125l24.382812 126.519531c8.25 42.90625 12.898438 48.746094 45.722656 66.992188l55.753906 29.941406zm0 0" fill="#f4cdac"/><path d="m357.796875 338.960938c-53.421875 15.65625-73.789063 67.097656-73.789063 108.882812h91.703126l55.753906-29.945312c32.824218-18.242188 37.472656-24.082032 45.722656-66.988282l24.382812-126.519531c4.628907-24.035156-30.828124-30.84375-36.160156-6.953125l-17.273437 77.386719c-.867188-1.472657-1.996094-2.835938-3.398438-4.050781-7.328125-6.34375-18.507812-5.539063-24.851562 1.789062l-18.230469 21.058594c-18.449219 21.3125-16.65625 17.367187-43.859375 25.339844zm0 0" fill="#f4cdac"/><path d="m375.710938 447.84375h-91.703126c-6.949218 0-12.632812 5.6875-12.632812 12.636719v17.355469c0 6.953124 5.683594 12.636718 12.632812 12.636718h91.703126c6.953124 0 12.640624-5.683594 12.640624-12.636718v-17.355469c-.003906-6.949219-5.6875-12.636719-12.640624-12.636719zm0 0" fill="#c2c2c2"/><path d="m240.628906 477.835938v-17.355469c0-6.949219-5.6875-12.636719-12.640625-12.636719h-91.699219c-6.953124 0-12.636718 5.6875-12.636718 12.636719v17.355469c0 6.949218 5.683594 12.636718 12.636718 12.636718h91.703126c6.949218 0 12.636718-5.6875 12.636718-12.636718zm0 0" fill="#c2c2c2"/><path d="m256 290.242188c66.023438 0 119.871094-53.851563 119.871094-119.871094 0-66.023438-53.847656-119.871094-119.871094-119.871094s-119.871094 53.847656-119.871094 119.871094c0 66.019531 53.847656 119.871094 119.871094 119.871094zm0 0" fill="#8eecf0"/><path d="m338.042969 257.753906c-21.445313 20.144532-50.300781 32.488282-82.042969 32.488282s-60.597656-12.347657-82.042969-32.488282c1.824219-43.582031 38.03125-78.671875 82.042969-78.671875s80.21875 35.089844 82.042969 78.671875zm0 0" fill="#ff836c"/><path d="m136.128906 30.5c0 11.042969-8.953125 19.996094-20 19.996094s-20-8.953125-20-19.996094c0-11.046875 8.953125-20 20-20s20 8.953125 20 20zm0 0" fill="#ffba4a"/><path d="m50.011719 90.496094c0 11.046875-8.953125 20-19.996094 20-11.046875 0-20-8.953125-20-20s8.953125-20 20-20c11.042969 0 19.996094 8.953125 19.996094 20zm0 0" fill="#ffba4a"/><path d="m100.011719 160.492188c0 11.046874-8.953125 20-20 20-11.042969 0-19.996094-8.953126-19.996094-20 0-11.042969 8.953125-19.996094 19.996094-19.996094 11.046875 0 20 8.953125 20 19.996094zm0 0" fill="#ffba4a"/><path d="m415.867188 30.5c0 11.042969-8.953126 19.996094-19.996094 19.996094-11.046875 0-20-8.953125-20-19.996094 0-11.046875 8.953125-20 20-20 11.042968 0 19.996094 8.953125 19.996094 20zm0 0" fill="#ffba4a"/><path d="m501.984375 90.496094c0 11.046875-8.953125 20-20 20-11.042969 0-19.996094-8.953125-19.996094-20s8.953125-20 19.996094-20c11.046875 0 20 8.953125 20 20zm0 0" fill="#ffba4a"/><path d="m451.984375 160.492188c0 11.046874-8.953125 20-19.996094 20-11.046875 0-20-8.953126-20-20 0-11.042969 8.953125-19.996094 20-19.996094 11.042969 0 19.996094 8.953125 19.996094 19.996094zm0 0" fill="#ffba4a"/><path d="m276 350.238281c0 11.046875-8.953125 20-20 20-11.042969 0-20-8.953125-20-20 0-11.042969 8.957031-20 20-20 11.046875 0 20 8.957031 20 20zm0 0" fill="#ffba4a"/><path d="m209.046875 127.328125c17.84375 11.394531 44.757813-.242187 58.558594-10.132813 9.449219 11.171876 24.933593 14.441407 35.347656 10.132813 0-25.824219-21.128906-46.953125-46.953125-46.953125s-46.953125 21.128906-46.953125 46.953125zm0 0" fill="#999"/><path d="m267.605469 117.191406c-13.800781 9.894532-40.714844 21.53125-58.558594 10.136719v23.476563c0 13.339843 5.636719 25.421874 14.640625 33.992187 8.433594 8.023437 19.824219 12.960937 32.3125 12.960937s23.875-4.9375 32.308594-12.960937c9.007812-8.570313 14.644531-20.65625 14.644531-33.992187v-23.476563c-10.417969 4.308594-25.898437 1.039063-35.347656-10.136719zm0 0" fill="#f4cdac"/></g><path d="m489.5625 193.210938c-13.425781-2.789063-29.878906 3.988281-33.910156 22.046874l-13.964844 62.554688c-3.324219-1.066406-6.859375-1.5-10.460938-1.246094-7.371093.53125-14.082031 3.886719-18.898437 9.449219l-18.234375 21.0625c-13.214844 15.265625-13.214844 15.265625-27.011719 18.9375-3.21875.855469-7.226562 1.921875-12.09375 3.347656-56.285156 16.496094-78.371093 68.226563-80.753906 110.703125-7.601563 3.65625-12.863281 11.433594-12.863281 20.414063v17.355469c0 12.480468 10.15625 22.636718 22.636718 22.636718h91.703126c12.484374 0 22.636718-10.152344 22.636718-22.636718v-17.355469c0-4.273438-1.191406-8.277344-3.257812-11.691407l41.105468-22.078124c.042969-.023438.085938-.046876.128907-.070313 35.890625-19.945313 42.046875-28.917969 50.683593-73.84375 1.042969-5.421875-2.507812-10.664063-7.933593-11.707031-5.425781-1.042969-10.664063 2.507812-11.707031 7.933594-7.800782 40.578124-11.300782 43.761718-40.695313 60.101562l-53.476563 28.71875h-78.757812c2.910156-35.042969 21.363281-76.15625 66.175781-89.285156 4.625-1.359375 8.335938-2.34375 11.613281-3.214844 17.515626-4.664062 20.703126-6.363281 36.988282-25.175781l18.234375-21.0625c2.75-3.175781 7.566406-3.519531 10.742187-.773438 3.925782 3.398438 1.855469 8.984375.011719 11.746094-9.496094 14.253906-18.847656 27.851563-27.894531 40.996094-4.621094 6.714843-9.238282 13.429687-13.898438 20.257812-3.113281 4.5625-1.9375 10.785157 2.625 13.898438 4.5625 3.109375 10.78125 1.9375 13.894532-2.625 4.644531-6.808594 9.25-13.5 13.855468-20.191407 9.085938-13.210937 18.484375-26.867187 28.0625-41.246093 5.8125-8.722657 6.964844-18.898438 3.773438-27.40625l16.546875-74.144531c1.824219-8.15625 8.917969-7.113282 10.324219-6.824219 2.351562.488281 7.664062 2.414062 6.257812 9.703125l-11.332031 58.808594c-1.046875 5.421874 2.503906 10.664062 7.925781 11.707031 5.429688 1.046875 10.667969-2.503907 11.710938-7.925781l11.332031-58.804688c3.472656-18.007812-8.351563-30.269531-21.824219-33.070312zm-111.210938 284.625c0 1.429687-1.210937 2.640624-2.640624 2.640624h-91.703126c-1.429687 0-2.636718-1.210937-2.636718-2.640624v-17.355469c0-1.429688 1.207031-2.636719 2.636718-2.636719h91.683594.027344.007812c1.425782.007812 2.625 1.210938 2.625 2.636719zm0 0"/><path d="m486.6875 301.582031c-5.425781-1.039062-10.664062 2.511719-11.707031 7.933594l-.050781.265625c-1.042969 5.421875 2.507812 10.664062 7.933593 11.707031.636719.121094 1.269531.179688 1.898438.179688 4.695312 0 8.886719-3.328125 9.808593-8.113281l.050782-.261719c1.042968-5.425781-2.507813-10.667969-7.933594-11.710938zm0 0"/><path d="m237.765625 440.066406c-2.382813-42.476562-24.46875-94.207031-80.753906-110.703125-4.867188-1.425781-8.875-2.492187-12.09375-3.347656-13.800781-3.671875-13.800781-3.671875-27.015625-18.9375l-18.230469-21.0625c-4.816406-5.5625-11.527344-8.917969-18.898437-9.449219-3.597657-.257812-7.136719.175782-10.460938 1.246094l-13.964844-62.554688c-4.03125-18.058593-20.476562-24.835937-33.910156-22.046874-13.472656 2.800781-25.296875 15.058593-21.824219 33.070312 1.042969 5.421875 6.292969 8.972656 11.710938 7.925781 5.421875-1.042969 8.96875-6.289062 7.925781-11.710937-1.40625-7.292969 3.90625-9.214844 6.253906-9.703125 1.40625-.292969 8.503906-1.335938 10.324219 6.820312l16.550781 74.148438c-3.195312 8.503906-2.039062 18.683593 3.769532 27.402343 9.589843 14.394532 18.996093 28.0625 28.089843 41.28125 4.597657 6.679688 9.195313 13.363282 13.832031 20.15625 3.113282 4.5625 9.332032 5.734376 13.894532 2.625 4.5625-3.113281 5.734375-9.335937 2.625-13.894531-4.652344-6.816406-9.265625-13.519531-13.875-20.222656-9.054688-13.160156-18.417969-26.765625-27.921875-41.035156-1.84375-2.761719-3.914063-8.347657.011719-11.742188 1.523437-1.320312 3.488281-1.964843 5.53125-1.820312 2.042968.148437 3.894531 1.070312 5.214843 2.59375l18.230469 21.058593c16.285156 18.8125 19.472656 20.511719 36.992188 25.175782 3.273437.871094 6.984374 1.855468 11.613281 3.214844 44.8125 13.128906 63.261719 54.242187 66.175781 89.285156h-78.761719l-53.476562-28.71875c-29.398438-16.339844-32.894531-19.523438-40.695313-60.105469l-11.332031-58.804687c-1.046875-5.425782-6.289063-8.972657-11.710937-7.929688-5.421876 1.046875-8.972657 6.289062-7.925782 11.710938l11.332032 58.800781c8.636718 44.925781 14.792968 53.898437 50.683593 73.84375.042969.023437.082031.046875.125.070312l41.109375 22.078125c-2.070312 3.414063-3.261718 7.417969-3.261718 11.691406v17.355469c0 12.484375 10.15625 22.636719 22.636718 22.636719h91.703125c12.480469 0 22.636719-10.152344 22.636719-22.636719v-17.355469c0-8.980468-5.257812-16.753906-12.859375-20.410156zm-7.136719 37.769532c0 1.429687-1.210937 2.640624-2.636718 2.640624h-91.703126c-1.429687 0-2.640624-1.210937-2.640624-2.640624v-17.355469c0-1.425781 1.203124-2.628907 2.625-2.636719h.003906.03125 91.683594c1.429687 0 2.636718 1.207031 2.636718 2.636719zm0 0"/><path d="m19.929688 273.714844c5.421874-1.039063 8.976562-6.28125 7.9375-11.703125l-.054688-.265625c-1.039062-5.421875-6.28125-8.976563-11.703125-7.9375-5.421875 1.042968-8.976563 6.28125-7.9375 11.707031l.050781.261719c.921875 4.789062 5.109375 8.121094 9.8125 8.121094.621094 0 1.257813-.0625 1.894532-.183594zm0 0"/><path d="m286 340.238281c0-13.035156-8.363281-24.148437-20-28.277343v-12.101563c30.042969-2.300781 57.257812-14.875 78.132812-34.195313.554688-.417968 1.058594-.894531 1.511719-1.414062 24.746094-23.636719 40.191407-56.925781 40.222657-93.757812h17.84375c4.125 11.636718 15.242187 20 28.277343 20 16.539063 0 29.996094-13.457032 29.996094-30 0-16.539063-13.457031-29.996094-29.996094-29.996094-13.035156 0-24.152343 8.359375-28.277343 19.996094h-19.359376c-2-12.960938-5.925781-25.292969-11.46875-36.703126h25.808594c2.652344 0 5.195313-1.050781 7.074219-2.925781l10.363281-10.367187h37.578125c4.128907 11.636718 15.242188 20 28.277344 20 16.542969 0 30-13.457032 30-30 0-16.539063-13.457031-30-30-30-13.035156 0-24.148437 8.363281-28.277344 20h-41.71875c-2.652343 0-5.195312 1.054687-7.070312 2.929687l-10.367188 10.367188h-33.726562c-10.785157-14.722657-24.585938-27.097657-40.488281-36.207031l17.085937-17.085938h30.171875c4.128906 11.636719 15.242188 19.996094 28.277344 19.996094 16.542968 0 30-13.457032 30-29.996094 0-16.542969-13.457032-30-30-30-13.035156 0-24.148438 8.359375-28.277344 20h-34.3125c-2.652344 0-5.195312 1.054688-7.070312 2.929688l-25.140626 25.136718c-14.046874-5.210937-29.230468-8.066406-45.070312-8.066406-15.835938 0-31.019531 2.855469-45.066406 8.066406l-25.140625-25.140625c-1.875-1.875-4.417969-2.925781-7.070313-2.925781h-34.316406c-4.125-11.640625-15.238281-20-28.277344-20-16.539062 0-29.996094 13.457031-29.996094 29.996094 0 16.542968 13.457032 30 29.996094 30 13.035156 0 24.152344-8.359375 28.277344-20h30.175781l17.085938 17.089844c-15.90625 9.105468-29.703125 21.484374-40.488281 36.203124h-33.730469l-10.367188-10.367187c-1.875-1.875-4.417969-2.925781-7.070312-2.925781h-41.71875c-4.128907-11.640625-15.242188-20-28.277344-20-16.542969 0-30 13.457031-30 30 0 16.539062 13.457031 29.996094 30 29.996094 13.035156 0 24.148437-8.359376 28.277344-20h37.578125l10.367187 10.367187c1.875 1.875 4.417969 2.929687 7.070313 2.929687h25.808594c-5.542969 11.40625-9.46875 23.742188-11.46875 36.703126h-19.355469c-4.128907-11.640626-15.242188-20-28.28125-20-16.539063 0-29.996094 13.457031-29.996094 30 0 16.539062 13.457031 29.996093 29.996094 29.996093 13.035156 0 24.152343-8.359375 28.28125-20h17.839843c.035157 36.832031 15.476563 70.121094 40.21875 93.757813.457032.523437.964844 1 1.519532 1.417968 20.878906 19.324219 48.085937 31.894532 78.128906 34.191407v12.105469c-11.636719 4.125-19.996094 15.242187-19.996094 28.277343 0 16.539063 13.457032 29.996094 29.996094 29.996094 16.542969.003906 30-13.453125 30-29.996094zm195.984375-259.742187c5.515625 0 10 4.488281 10 10 0 5.515625-4.484375 10-10 10-5.511719 0-10-4.484375-10-10 0-5.511719 4.488281-10 10-10zm-86.113281-59.996094c5.511718 0 10 4.484375 10 10 0 5.511719-4.488282 10-10 10-5.515625 0-10-4.488281-10-10 0-5.515625 4.484375-10 10-10zm-279.742188 20c-5.515625 0-10-4.488281-10-10 0-5.515625 4.484375-10 10-10 5.511719 0 10 4.484375 10 10 0 5.511719-4.488281 10-10 10zm-86.113281 59.996094c-5.515625 0-10-4.484375-10-10 0-5.511719 4.484375-10 10-10 5.511719 0 9.996094 4.488281 9.996094 10 0 5.515625-4.484375 10-9.996094 10zm154.15625 152.949218c2.316406-24.046874 16.710937-45.511718 38.015625-56.839843 9.464844 7.003906 21.160156 11.15625 33.8125 11.15625s24.347656-4.152344 33.8125-11.160157c21.304688 11.332032 35.699219 32.796876 38.015625 56.84375-19.273437 16.6875-44.394531 26.796876-71.828125 26.796876s-52.554688-10.109376-71.828125-26.796876zm34.875-111.96875c2.453125.382813 4.9375.558594 7.433594.558594 14.488281 0 29.265625-5.957031 39.9375-12.1875 7.726562 6.039063 17.253906 9.328125 26.535156 9.347656v11.609376c0 10.28125-4.222656 19.589843-11.019531 26.296874-.347656.285157-.671875.597657-.976563.929688-6.582031 6.039062-15.34375 9.730469-24.957031 9.730469-9.617188 0-18.382812-3.695313-24.960938-9.734375-.304687-.328125-.621093-.632813-.960937-.914063-6.804687-6.707031-11.035156-16.023437-11.035156-26.308593v-9.328126zm.527344-20.328124c2.949219-17.441407 18.15625-30.773438 36.425781-30.773438 17.550781 0 32.273438 12.304688 36.019531 28.738281-5.691406-.324219-12.230469-2.992187-16.78125-8.378906-3.363281-3.976563-9.226562-4.707031-13.460937-1.667969-10.035156 7.195313-28.964844 15.714844-42.203125 12.082032zm212.414062 29.34375c5.511719 0 10 4.488281 10 10 0 5.515624-4.488281 10-10 10-5.515625 0-10-4.484376-10-10 0-5.511719 4.484375-10 10-10zm-351.976562 20c-5.511719 0-9.996094-4.484376-9.996094-10 0-5.511719 4.484375-9.996094 9.996094-9.996094 5.515625 0 10 4.484375 10 9.996094 0 5.515624-4.484375 10-10 10zm175.988281-109.996094c60.582031 0 109.871094 49.289062 109.871094 109.875 0 24.230468-7.890625 46.648437-21.230469 64.835937-6.335937-22.199219-20.890625-41.480469-40.769531-53.605469 5.738281-8.886718 9.082031-19.453124 9.082031-30.796874v-23.359376c0-.03125 0-.0625 0-.09375v-.023437c0-31.402344-25.550781-56.953125-56.953125-56.953125-31.40625 0-56.953125 25.550781-56.953125 56.953125v23.476563c0 11.34375 3.34375 21.910156 9.082031 30.796874-19.882812 12.125-34.433594 31.40625-40.769531 53.605469-13.339844-18.1875-21.230469-40.605469-21.230469-64.835937 0-60.585938 49.289063-109.875 109.871094-109.875zm0 289.742187c-5.511719 0-10-4.484375-10-10 0-5.511719 4.488281-10 10-10 5.515625 0 10 4.488281 10 10 0 5.515625-4.484375 10-10 10zm0 0"/></svg>